# xmcd CD database file
#
# Track frame offsets:
#	150
#	22599
#	44569
#	69993
#	91462
#	119411
#	140380
#	161572
#	178434
#	197542
#	222911
#	240857
#	261323
#
# Disc length: 3804 seconds
#
# Revision: 0
# Processed by: cddbd v1.5.1PL2 Copyright (c) Steve Scherf et al.
# Submitted via: CDex 1.51
#
DISCID=b30eda0d
DTITLE=Bill Buchman Trio - out of the blue
DYEAR=2003
DGENRE=Jazz
TTITLE0=Revelation
TTITLE1=Rainbow Eyes
TTITLE2=Out Of The Blue
TTITLE3=Misty
TTITLE4=Solar
TTITLE5=Black Coffee
TTITLE6=Someday My Prince Will Come
TTITLE7=Scandinavia
TTITLE8=Passacaglia
TTITLE9=Stella By Starlight
TTITLE10=Born to Be Blue
TTITLE11=Round Midnight
TTITLE12=The Blues Walk
EXTD=YEAR: 2003
EXTT0=
EXTT1=
EXTT2=
EXTT3=
EXTT4=
EXTT5=
EXTT6=
EXTT7=
EXTT8=
EXTT9=
EXTT10=
EXTT11=
EXTT12=
PLAYORDER=
